<?xml version="1.0" standalone="no"?>
<!DOCTYPE svg PUBLIC "-//W3C//DTD SVG 20010904//EN"
 "http://www.w3.org/TR/2001/REC-SVG-20010904/DTD/svg10.dtd">
<svg version="1.0" xmlns="http://www.w3.org/2000/svg"
 width="1280.000000pt" height="1280.000000pt" viewBox="0 0 1280.000000 1280.000000"
 preserveAspectRatio="xMidYMid meet">
<metadata>
Created by potrace 1.16, written by Peter Selinger 2001-2019
</metadata>
<g transform="translate(0.000000,1280.000000) scale(0.100000,-0.100000)"
fill="#000000" stroke="none">
<path d="M1729 11990 c-348 -59 -659 -290 -818 -608 -43 -85 -86 -220 -100
-312 -9 -56 -11 -509 -9 -1750 l3 -1675 28 -80 c64 -183 -175 64 3246 -3358
1725 -1726 3165 -3161 3201 -3188 127 -97 318 -179 484 -208 88 -16 311 -13
403 4 147 28 296 90 428 178 86 57 3139 3108 3204 3202 139 201 202 402 202
650 0 239 -61 441 -194 640 -49 75 -6274 6306 -6362 6370 -83 60 -169 101
-261 125 -77 20 -96 20 -1743 19 -916 -1 -1687 -5 -1712 -9z m1696 -1630 c215
-67 383 -208 481 -405 60 -122 84 -222 84 -352 0 -129 -20 -222 -72 -333 -78
-169 -199 -294 -363 -376 -250 -124 -527 -114 -762 27 -139 84 -230 183 -303
334 -59 123 -80 212 -80 348 0 234 105 459 286 609 110 92 306 171 449 180 74
5 209 -11 280 -32z"/>
</g>
</svg>
